<?xml version="1.0" encoding="UTF-8"?>
<svg id="Layer_2" data-name="Layer 2" xmlns="http://www.w3.org/2000/svg" viewBox="0 0 807.41 275.8">
  <defs>
    <style>
      .cls-1, .cls-2, .cls-3 {
        stroke-width: 4px;
      }

      .cls-1, .cls-2, .cls-3, .cls-4 {
        stroke: #000;
        stroke-miterlimit: 10;
      }

      .cls-1, .cls-4 {
        fill: #fff;
      }

      .cls-3 {
        fill: none;
      }

      .cls-4 {
        stroke-width: 6px;
      }
    </style>
  </defs>
  <g id="Layer_1-2" data-name="Layer 1">
    <path class="cls-2" d="m211.69,129.04c-2.52-1.85-3.44-4.39-3.33-7.25.21-5.33.62-10.66.87-15.99.05-1.06-.13-2.16-.38-3.2-.37-1.56-1.35-2.66-2.98-2.9-1.52-.22-2.65.6-3.41,1.81-1.12,1.78-2.13,3.62-3.18,5.44-1.22,2.09-2.44,4.19-3.67,6.3-.34-.22-.51-.28-.62-.41-4.29-5.21-8.61-10.41-12.83-15.69-.44-.56-.51-1.6-.41-2.37,1.14-8.78,2.37-17.55,3.54-26.32.29-2.19.52-4.4.62-6.61.07-1.44-.45-2.73-2.01-3.21-1.46-.45-2.72.02-3.64,1.19-.48.61-.86,1.36-1.1,2.1-1.18,3.55-2.37,7.1-3.43,10.69-.8,2.69-1.41,5.44-2.23,8.67-1.27-3.83-2-7.22-1.65-10.79.49-5.01,2.57-9.38,5.42-13.43,5.75-8.17,13.18-14.65,21.64-19.76,27.85-16.81,57.7-27.82,90.4-30.26,2.09-.16,3.17-1.04,3.13-2.61-.04-1.54-1.18-2.54-3.26-2.44-4.99.23-10.02.28-14.95.98-13.56,1.92-26.56,6.06-39.4,10.67-16.48,5.92-32.25,13.29-46.27,23.97-6.22,4.74-11.81,10.14-16.26,16.63-4.19,6.11-6.74,12.73-6.12,20.29.43,5.3,2.32,10.15,4.63,14.87.35.73.66,1.62.58,2.39-.34,3.33-1,6.63-1.24,9.96-.39,5.48-1.03,11.02-.64,16.47.27,3.8-.14,7.16-1.71,10.5-.43.93-.81,1.88-1.26,2.79-2.62,5.32-5.52,10.46-9.79,14.66-2.48,2.44-4.32,2-5.56-1.25-.28-.74-.52-1.52-.6-2.3-.18-1.75-.38-3.51-.35-5.26.11-7.84.33-15.67.46-23.51.11-6.65.26-13.32-1.81-19.75-1.48-4.59-4.77-5.98-9.25-4.14-5.3,2.18-8.46,6.32-10.5,11.47-2.56,6.46-3.54,13.26-4.2,20.1-.71,7.35-1.15,14.71-1.78,22.07-.16,1.92-.59,3.82-.9,5.72-.17.02-.33.03-.5.05-.7-1.15-1.61-2.22-2.06-3.46-1.74-4.73-3.44-9.48-4.96-14.28-1.1-3.48-1.31-7.07-1.12-10.76.35-6.86.45-13.74.4-20.61-.04-5.46-1.07-10.75-4.32-15.34-4.63-6.54-10.65-6.5-14.75.39-2.13,3.57-3.88,7.49-5.1,11.46-5.05,16.33-6.41,33.18-6.08,50.16.12,6,.77,12.03,4.41,17.19-4.37,3.64-5.38,3.42-9.11.28-.48-.4-.95-.83-1.34-1.3-4.32-5.2-8.59-10.44-12.94-15.61-2.26-2.69-4.65-5.26-6.99-7.88,1.98-2.7,4.19-5.27,5.88-8.14,3.83-6.5,7.67-13.01,10.99-19.77,3.02-6.15,5.38-12.62,7.96-18.97.71-1.75.13-3.21-1.2-3.8-1.27-.56-2.55-.05-3.59,1.48-.67.99-1.44,1.93-1.94,3-2.62,5.54-5.28,11.06-7.71,16.68-3.07,7.11-6.57,13.97-10.92,20.38-.28.42-.6.81-1.12,1.51,0-.73-.02-1.01,0-1.29,1.09-11.02,2.28-22.02,3.22-33.05.38-4.55,1.55-8.57,3.94-12.58,8.7-14.65,12.22-30.82,12.71-47.68.1-3.41-.58-6.89-1.26-10.26-.48-2.43-1.63-4.73-4.6-5.02-2.25-.22-4.15,1.31-5.3,4.51-.97,2.71-1.79,5.51-2.37,8.34-3.49,16.97-5.57,34.16-7.61,51.35-.14,1.18-.59,2.47-1.3,3.41-2.43,3.21-4.91,6.4-7.62,9.39-7.14,7.89-15.2,14.7-24.7,19.59-2.28,1.17-4.87,1.89-7.4,2.39-2.85.56-5-.93-5.94-3.66-.33-.96-.65-1.98-.65-2.98,0-2.77.1-5.54.28-8.3.09-1.4-.17-2.56-1.56-3.05-1.46-.51-2.58.14-3.23,1.47-.34.7-.62,1.51-.64,2.27-.08,3.11-.31,6.26,0,9.34.74,7.45,6.36,11.66,13.71,10.37,2.16-.38,4.33-1.04,6.31-1.97,9.43-4.42,17.39-10.89,24.73-18.18,2.19-2.17,4.23-4.49,6.58-7-.2,1.94-.39,3.51-.53,5.09-1.07,12.44-2.35,24.87-3.15,37.33-.79,12.41-1.11,24.85-1.57,37.28-.07,1.81.11,3.64.36,5.43.26,1.86,1.68,3.11,3.28,3.18,1.5.07,2.59-.88,3.19-2.78.12-.38.24-.76.31-1.15,1.58-9.06,3.17-18.11,4.71-27.18.31-1.8-.44-3.06-1.78-3.43-1.36-.38-2.41.3-3.21,2.08-.07.16-.15.33-.22.49-.07-.02-.14-.04-.21-.06.17-3.32.35-6.64.52-9.96.2-.14.41-.27.61-.41.33.53.6,1.1.99,1.58,4.46,5.45,8.93,10.89,13.43,16.31,2.51,3.02,5.06,5.99,8.54,7.99,3.02,1.74,6.02,1.94,9.01.02,1.52-.98,2.96-2.1,4.46-3.13.55-.38,1.14-.87,1.76-.96,2.18-.32,3.87-1.45,5.07-3.15,1.27-1.79,2.5-3.68,3.33-5.7,3.07-7.43,4.13-15.31,4.86-23.24.21-2.24.39-4.49.58-6.74.41.6.52,1.2.7,1.79,1.49,5,2.84,10.04,4.52,14.97,1.2,3.5,3.01,6.75,5.76,9.35,3.23,3.05,6.79,2.32,8.26-1.87.84-2.39,1.37-4.94,1.62-7.46.8-8.25,1.32-16.52,2.13-24.77.59-6.05,1.57-12.05,4.01-17.7,1.1-2.56,2.64-4.77,4.98-6.34,3.02-2.03,3.55-1.83,4.25,1.69,1.37,6.92,1,13.91.84,20.89-.15,6.36-.33,12.72-.37,19.08-.02,3.41.21,6.83,1.73,9.99,2.92,6.11,8.55,7.38,13.67,3.01,3.86-3.29,6.6-7.49,9.05-11.86,1.52-2.71,2.87-5.51,4.49-8.65.31.48.5.91.82,1.23,2.68,2.68,5.8,3.46,9.17,1.73,2.49-1.28,4.82-2.99,6.95-4.83,2.13-1.83,3.92-4.05,6.29-6.55,1.51,1.71,3.03,3.31,4.4,5.04.58.74,1.08,1.69,1.22,2.61.37,2.42,1.63,3.51,4.03,3.29.49-.04,1.01.15,1.31.2-6.1,8.22-12.27,16.09-17.95,24.3-10.09,14.6-18.37,30.15-23.37,47.28-3.61,12.36-5.3,24.89-2.82,37.68,2.29,11.79,7.97,21.32,19.15,26.8,6.28,3.08,13.02,4.38,19.96,4.54,17.03.37,33.28-3.42,48.95-9.77,10.47-4.24,20.08-9.91,27.69-18.48,6.63-7.47,10.14-16.08,9.13-26.22-.56-5.62-2.48-10.82-5.02-15.82-6.23-12.26-14.87-22.74-24.75-32.12-11.37-10.79-23.23-21.06-34.88-31.54-2.56-2.3-5.17-4.56-7.88-6.94,4.01-4.33,7.87-8.5,11.77-12.72.3,2.62.29,4.99.87,7.2,1.66,6.34,7.87,8.56,13.01,4.52,2.37-1.86,4.63-4.17,6.13-6.75,2.84-4.89,5.34-10.01,7.52-15.23,3.41-8.16,6.43-16.49,9.63-24.75.27-.69.62-1.35.93-2.03.16.04.32.09.48.13.31,6.51.67,13.02.91,19.53.27,6.98.42,13.97.66,20.95.05,1.52.64,2.79,2.27,3.22,1.58.42,2.77-.3,3.72-1.48.39-.48.7-1.03,1.01-1.58,2.58-4.61,5.23-9.18,7.7-13.84,3.75-7.07,7.38-14.21,11.07-21.31.28-.55.64-1.06.96-1.58.56,2.24.69,4.33.97,6.41.4,2.97.57,6.04,1.46,8.87,1.76,5.61,7.86,7.62,12.85,4.52.62-.39,1.21-.82,1.85-1.26.79.65,1.53,1.26,2.21,1.83-1.21,3.19-2.55,6.2-3.47,9.34-.62,2.14-.93,4.46-.85,6.68.12,3.23,2.63,5.15,5.68,4.59,2.89-.53,5.55-1.67,7.76-3.67,3.32-3,4.25-6.9,2.38-10.96-.99-2.15-2.44-4.08-3.6-6.15-.28-.5-.56-1.36-.32-1.74,1.97-3.25,4.05-6.43,6.13-9.61.25-.38.68-.63,1.28-1.16.53,2.28.99,4.21,1.42,6.14.89,3.98,1.61,8.01,2.69,11.93.6,2.2,2.2,3.19,3.83,3.01,1.99-.22,2.64-1.73,3.13-3.37,1.02-3.37,2.03-6.73,3.08-10.09.3-.97.76-1.9,1.05-2.88.43-1.45-.16-2.81-1.39-3.26-1.39-.51-2.46.02-3.2,1.22-.44.72-.79,1.51-1.15,2.28-.53,1.16-1.03,2.34-1.72,3.9-.22-1.17-.3-1.9-.5-2.59-.94-3.25-1.58-6.65-2.98-9.7-1.41-3.09-4.79-3.55-7.49-1.43-1.06.83-2.08,1.81-2.85,2.91-1.98,2.83-3.81,5.78-5.71,8.67-.15.22-.33.42-.7.87-.43-.43-.78-.78-1.04-1.04,4.56-8.25,5.63-16.91,5.4-25.81-.04-1.5-.47-3.04-1.01-4.45-1.88-4.88-6.03-6.4-10.59-3.87-4.16,2.31-7.12,5.77-9.01,10.12-.45,1.03-.81,2.1-1.22,3.17-3.2-2.42-5.35-2.15-7.61,1.12-1.45,2.09-2.73,4.32-3.92,6.57-4.35,8.17-8.63,16.37-12.94,24.56-.27.51-.59.99-1.14,1.9-.09-.96-.15-1.4-.17-1.84-.14-4.2-.19-8.41-.43-12.6-.39-6.91-.82-13.82-1.41-20.72-.22-2.61-.82-5.26-3.94-6.16-.23-.07-.4-.39-.57-.61-1.31-1.66-3.13-2.36-5-1.62-2.71,1.08-5.53,2.22-7.81,3.98-10.88,8.38-18.12,19.42-22.93,32.17-.44,1.18-1.16,2.33-2.01,3.26-3.04,3.3-6.21,6.48-9.29,9.74-2.68,2.84-5.31,5.74-8.02,8.68ZM805.42,31.93c-.04-1.28-.79-2.13-2.09-2.31-.84-.11-1.7-.12-2.55-.11-17.74.19-35.46.81-53.13,2.5-12.04,1.16-24.06,2.55-36.07,4.02-12.35,1.51-24.67,3.24-37,4.88-13.06,1.75-26.12,3.51-39.18,5.28-14.58,1.97-29.15,3.97-43.73,5.94-13.79,1.87-27.59,3.7-41.37,5.59-15.36,2.11-30.72,4.27-46.08,6.4-.42.06-.84.05-1.38.08.11-.96.2-1.74.29-2.53.77-6.27,1.28-12.53.16-18.83-1.77-9.94-8.49-15.69-18.61-15.6-2.64.02-5.27.52-7.98.8-.08-.18-.12-.51-.31-.68-.81-.69-1.58-1.67-2.53-1.91-1.25-.32-2.25.57-2.78,1.78-.31.73-.48,1.54-.87,2.21-.4.68-.89,1.5-1.55,1.81-6.32,2.94-12.15,6.66-17.69,10.86-1.38,1.05-2.73,2.13-4.36,3.4,0-.88-.01-1.42,0-1.96.25-9.99.52-19.99.74-29.98.03-1.12.07-2.37-.37-3.34-.38-.85-1.4-1.86-2.22-1.93-.91-.08-2.03.68-2.83,1.34-.49.41-.69,1.3-.8,2.01-.5,2.96-1.12,5.93-1.34,8.92-.72,10.14-1.32,20.28-1.88,30.43-.14,2.47-.25,4.84-1.91,6.88-.49.6-.75,1.4-1.02,2.15-1.35,3.74-.96,7.14,2.08,9.99.31.29.64.72.69,1.12.32,2.53,1.03,5.13.74,7.6-.74,6.4-2.29,12.66-5.86,18.16-1.21,1.87-2.88,3.5-4.57,4.97-1.48,1.29-3.32,1.38-5.05.2-3.26-2.22-5.05-5.46-6.29-9.07-.13-.39,0-.89.07-1.33.6-4.44,1.31-8.87,1.81-13.32,1.84-16.41,3.63-32.83,5.36-49.26.27-2.58.26-5.2.15-7.79-.06-1.39-1.04-2.62-2.47-2.63-1.18,0-2.64.42-3.46,1.2-1.06,1.01-1.81,2.49-2.34,3.9-1.03,2.76-1.99,5.56-2.68,8.42-3.57,14.65-5.01,29.54-4.73,44.59.08,4.23.55,8.53,1.5,12.65.74,3.23.25,5.97-1.37,8.59-1.18,1.92-2.54,3.78-4.1,5.4-3.3,3.43-6.83,2.76-8.97-1.53-.3-.61-.5-1.26-.75-1.9-1.05-2.67-.32-5.38-.18-8.08.17-3.39.24-6.8.19-10.2-.02-1.5-.94-2.59-2.52-2.78-1.54-.19-2.63.62-3.26,1.96-.28.6-.4,1.31-.42,1.97-.14,4.09-.22,8.17-.34,12.26-.1,3.17-1.19,6.03-3.2,8.43-.61.73-1.78,1.35-2.71,1.37-2.02.06-3.8-.85-5.44-2.08.84-2.02,1.67-3.88,2.39-5.79,1.33-3.52,2.46-7.08,2.26-10.92-.33-6.33-5.68-9.37-11.2-6.32-1.14.63-2.21,1.4-3.21,2.23-5.14,4.24-7.86,10.03-10.19,16.06-.21.54-.41,1.08-.61,1.62-.35-.72-.34-1.34-.35-1.95-.27-11.81-.48-23.63-2.47-35.31-.55-3.22-1.5-6.39-2.5-9.51-.55-1.71-1.93-2.98-3.86-2.74-.89.11-2.07.92-2.39,1.7-.28.68.38,1.82.78,2.68.39.83,1.29,1.51,1.44,2.35.77,4.3,1.73,8.6,1.97,12.94.67,11.9,1.09,23.82,1.47,35.74.22,6.75.15,13.52.25,20.28.03,2.28,1.07,3.57,2.76,3.65,1.72.08,2.93-1.13,3.04-3.38.33-6.98,2.17-13.67,3.98-20.34,1.6-5.88,3.62-11.65,7.52-16.46,1.47-1.81,3.43-3.28,5.35-4.66,1.28-.92,2.08-.46,2.41,1.13.16.76.28,1.63.07,2.35-.99,3.36-2.09,6.69-3.17,10.03-.06.18-.27.31-.27.3-1.31-.61-2.42-1.4-3.65-1.66-2.42-.5-4.6,1.03-5.65,4.14-1.75,5.18-2.02,10.57-1.55,15.98.13,1.52.81,2.91,2.5,3.3,1.75.4,2.99-.56,3.87-1.9,1.74-2.66,3.39-5.37,5.07-8.08.44-.71.83-1.45,1.24-2.16,9.17,4.66,12.93,2.62,16.71-2.65.46.59.89,1.17,1.35,1.73,4.02,4.85,9.9,5.46,14.8,1.54.66-.53,1.35-1.07,1.88-1.72,1.72-2.07,3.39-4.19,5.07-6.29.92,1.14,1.8,2.4,2.85,3.49,5.47,5.72,11.63,5.91,17.04.15,2.36-2.52,4.13-5.66,5.86-8.69,1.16-2.03,1.77-4.37,2.67-6.69.7.84,1.32,1.64,2,2.38,4.26,4.65,9.42,4.51,13.38-.42,1.13-1.41,2.03-3,3.18-4.72.24.65.42,1.11.59,1.58,2.57,7.24,8.72,11.46,16.39,11.05,5.51-.29,9.99-2.8,13.67-6.82,5.22-5.71,7.91-12.65,9.63-20.03.3-1.3.84-1.87,2.18-2.05,17.21-8.33,29.2-9.87,47.21-12.33,21-3,47.46-6.22,68-9,18.97-2.56,39.03-5.48,58-8m91-10M212.01,75.03c2.15-.03,2.95-.39,3.4-1.53.58-1.47-.1-2.61-1.17-3.44-2-1.56-4.03-3.1-6.19-4.42-1.45-.89-3.17-1.1-4.61.19-1.42,1.27-1.32,2.93-.85,4.58.87,3.05,2.74,5.44,5.1,7.49,1.06.92,2.24,1.43,3.56.59,1.29-.82,1.21-2.06.75-3.46Z"/>
    <path class="cls-3" d="m211.69,129.04c2.72-2.94,5.34-5.84,8.02-8.68,3.08-3.26,6.25-6.44,9.29-9.74.85-.92,1.57-2.08,2.01-3.26,4.81-12.75,12.06-23.79,22.93-32.17,2.28-1.76,5.1-2.9,7.81-3.98,1.87-.75,3.69-.05,5,1.62.17.22.34.54.57.61,3.12.9,3.72,3.55,3.94,6.16.59,6.9,1.02,13.81,1.41,20.72.24,4.2.29,8.4.43,12.6.01.44.08.88.17,1.84.55-.91.87-1.39,1.14-1.9,4.31-8.19,8.59-16.39,12.94-24.56,1.2-2.25,2.47-4.48,3.92-6.57,2.26-3.27,4.41-3.54,7.61-1.12.41-1.08.77-2.14,1.22-3.17,1.9-4.35,4.85-7.81,9.01-10.12,4.56-2.53,8.72-1.02,10.59,3.87.54,1.41.97,2.96,1.01,4.45.23,8.9-.83,17.56-5.4,25.81.27.27.61.61,1.04,1.04.36-.45.55-.65.7-.87,1.9-2.89,3.73-5.84,5.71-8.67.77-1.1,1.79-2.08,2.85-2.91,2.7-2.12,6.08-1.67,7.49,1.43,1.39,3.05,2.03,6.45,2.98,9.7.2.69.28,1.42.5,2.59.69-1.57,1.19-2.74,1.72-3.9.35-.77.7-1.56,1.15-2.28.74-1.2,1.81-1.72,3.2-1.22,1.24.45,1.82,1.81,1.39,3.26-.29.98-.75,1.9-1.05,2.88-1.05,3.36-2.06,6.72-3.08,10.09-.5,1.64-1.15,3.15-3.13,3.37-1.63.18-3.23-.81-3.83-3.01-1.08-3.93-1.8-7.95-2.69-11.93-.43-1.93-.89-3.86-1.42-6.14-.6.53-1.04.78-1.28,1.16-2.08,3.18-4.16,6.36-6.13,9.61-.23.38.04,1.24.32,1.74,1.16,2.07,2.61,4.01,3.6,6.15,1.88,4.06.94,7.97-2.38,10.96-2.21,2-4.88,3.14-7.76,3.67-3.05.56-5.56-1.36-5.68-4.59-.08-2.22.23-4.55.85-6.68.91-3.14,2.26-6.16,3.47-9.34-.69-.57-1.42-1.18-2.21-1.83-.64.44-1.23.87-1.85,1.26-4.99,3.1-11.09,1.09-12.85-4.52-.89-2.83-1.06-5.9-1.46-8.87-.28-2.07-.41-4.17-.97-6.41-.32.53-.68,1.04-.96,1.58-3.69,7.1-7.32,14.24-11.07,21.31-2.47,4.66-5.12,9.24-7.7,13.84-.3.54-.62,1.1-1.01,1.58-.95,1.18-2.13,1.9-3.72,1.48-1.64-.43-2.22-1.7-2.27-3.22-.24-6.98-.39-13.97-.66-20.95-.25-6.51-.61-13.02-.91-19.53-.16-.04-.32-.09-.48-.13-.31.68-.66,1.34-.93,2.03-3.2,8.25-6.22,16.58-9.63,24.75-2.18,5.22-4.68,10.34-7.52,15.23-1.5,2.58-3.76,4.88-6.13,6.75-5.13,4.04-11.34,1.82-13.01-4.52-.58-2.22-.57-4.58-.87-7.2-3.9,4.22-7.76,8.39-11.77,12.72,2.71,2.39,5.32,4.64,7.88,6.94,11.66,10.48,23.51,20.75,34.88,31.54,9.88,9.37,18.52,19.86,24.75,32.12,2.54,4.99,4.46,10.2,5.02,15.82,1,10.14-2.51,18.74-9.13,26.22-7.6,8.57-17.22,14.24-27.69,18.48-15.68,6.35-31.92,10.15-48.95,9.77-6.94-.15-13.68-1.46-19.96-4.54-11.19-5.48-16.86-15.01-19.15-26.8-2.48-12.79-.79-25.32,2.82-37.68,5-17.13,13.28-32.69,23.37-47.28,5.68-8.21,11.85-16.08,17.95-24.3-.3-.05-.82-.25-1.31-.2-2.4.22-3.66-.88-4.03-3.29-.14-.92-.63-1.87-1.22-2.61-1.37-1.73-2.9-3.34-4.4-5.04-2.37,2.51-4.16,4.72-6.29,6.55-2.13,1.83-4.46,3.55-6.95,4.83-3.37,1.73-6.5.95-9.17-1.73-.31-.31-.51-.75-.82-1.23-1.62,3.14-2.96,5.94-4.49,8.65-2.46,4.37-5.2,8.57-9.05,11.86-5.12,4.37-10.74,3.1-13.67-3.01-1.51-3.16-1.75-6.58-1.73-9.99.05-6.36.22-12.72.37-19.08.16-6.98.54-13.97-.84-20.89-.7-3.53-1.23-3.72-4.25-1.69-2.34,1.57-3.88,3.78-4.98,6.34-2.43,5.65-3.41,11.65-4.01,17.7-.81,8.25-1.32,16.52-2.13,24.77-.25,2.52-.78,5.07-1.62,7.46-1.47,4.19-5.04,4.92-8.26,1.87-2.75-2.6-4.56-5.85-5.76-9.35-1.69-4.93-3.04-9.97-4.52-14.97-.17-.59-.29-1.19-.7-1.79-.19,2.25-.37,4.49-.58,6.74-.73,7.93-1.8,15.81-4.86,23.24-.83,2.02-2.06,3.91-3.33,5.7-1.21,1.7-2.89,2.84-5.07,3.15-.62.09-1.2.58-1.76.96-1.5,1.03-2.93,2.14-4.46,3.13-2.99,1.93-5.99,1.72-9.01-.02-3.48-2-6.03-4.97-8.54-7.99-4.5-5.42-8.97-10.86-13.43-16.31-.39-.48-.66-1.05-.99-1.58-.2.14-.41.27-.61.41-.17,3.32-.35,6.64-.52,9.96.07.02.14.04.21.06.07-.16.15-.33.22-.49.81-1.78,1.85-2.46,3.21-2.08,1.34.37,2.09,1.63,1.78,3.43-1.54,9.06-3.13,18.12-4.71,27.18-.07.39-.19.77-.31,1.15-.6,1.9-1.69,2.84-3.19,2.78-1.6-.07-3.01-1.32-3.28-3.18-.25-1.79-.43-3.63-.36-5.43.46-12.43.78-24.87,1.57-37.28.79-12.46,2.07-24.89,3.15-37.33.14-1.58.33-3.15.53-5.09-2.35,2.51-4.39,4.83-6.58,7-7.34,7.28-15.3,13.76-24.73,18.18-1.98.93-4.15,1.59-6.31,1.97-7.35,1.29-12.96-2.92-13.71-10.37-.31-3.08-.08-6.23,0-9.34.02-.77.3-1.57.64-2.27.65-1.33,1.77-1.98,3.23-1.47,1.39.49,1.65,1.65,1.56,3.05-.18,2.76-.29,5.53-.28,8.3,0,1,.32,2.02.65,2.98.94,2.73,3.09,4.22,5.94,3.66,2.53-.5,5.12-1.22,7.4-2.39,9.5-4.9,17.56-11.7,24.7-19.59,2.7-2.98,5.18-6.18,7.62-9.39.71-.94,1.16-2.23,1.3-3.41,2.04-17.19,4.12-34.38,7.61-51.35.58-2.82,1.4-5.62,2.37-8.34,1.15-3.2,3.04-4.73,5.3-4.51,2.97.29,4.11,2.59,4.6,5.02.67,3.38,1.35,6.85,1.26,10.26-.49,16.87-4.01,33.03-12.71,47.68-2.38,4.01-3.55,8.03-3.94,12.58-.93,11.03-2.13,22.04-3.22,33.05-.03.28,0,.56,0,1.29.52-.69.84-1.09,1.12-1.51,4.35-6.41,7.84-13.28,10.92-20.38,2.43-5.62,5.09-11.14,7.71-16.68.5-1.07,1.27-2.01,1.94-3,1.04-1.53,2.32-2.04,3.59-1.48,1.33.59,1.9,2.05,1.2,3.8-2.58,6.36-4.94,12.83-7.96,18.97-3.32,6.76-7.16,13.27-10.99,19.77-1.69,2.87-3.9,5.44-5.88,8.14,2.34,2.62,4.73,5.2,6.99,7.88,4.35,5.17,8.62,10.41,12.94,15.61.4.48.87.9,1.34,1.3,3.73,3.14,4.73,3.35,9.11-.28-3.64-5.15-4.29-11.19-4.41-17.19-.33-16.99,1.03-33.83,6.08-50.16,1.23-3.97,2.98-7.89,5.1-11.46,4.1-6.88,10.12-6.92,14.75-.39,3.25,4.59,4.28,9.88,4.32,15.34.05,6.87-.04,13.75-.4,20.61-.19,3.69.02,7.28,1.12,10.76,1.52,4.8,3.22,9.55,4.96,14.28.46,1.24,1.36,2.31,2.06,3.46.17-.02.33-.03.5-.05.31-1.91.73-3.8.9-5.72.63-7.35,1.07-14.72,1.78-22.07.66-6.84,1.64-13.64,4.2-20.1,2.04-5.16,5.2-9.29,10.5-11.47,4.47-1.84,7.77-.45,9.25,4.14,2.07,6.43,1.92,13.1,1.81,19.75-.13,7.84-.35,15.67-.46,23.51-.03,1.75.17,3.51.35,5.26.08.78.32,1.56.6,2.3,1.25,3.25,3.08,3.68,5.56,1.25,4.28-4.2,7.18-9.35,9.79-14.66.45-.92.83-1.87,1.26-2.79,1.57-3.34,1.98-6.7,1.71-10.5-.39-5.45.25-10.98.64-16.47.24-3.33.9-6.64,1.24-9.96.08-.77-.23-1.66-.58-2.39-2.31-4.72-4.19-9.57-4.63-14.87-.62-7.56,1.93-14.18,6.12-20.29,4.45-6.49,10.03-11.88,16.26-16.63,14.02-10.68,29.78-18.05,46.27-23.97,12.84-4.62,25.84-8.75,39.4-10.67,4.93-.7,9.96-.75,14.95-.98,2.08-.1,3.22.89,3.26,2.44.04,1.57-1.03,2.45-3.13,2.61-32.7,2.44-62.55,13.44-90.4,30.26-8.46,5.11-15.88,11.58-21.64,19.76-2.85,4.05-4.93,8.41-5.42,13.43-.35,3.58.38,6.96,1.65,10.79.82-3.23,1.44-5.97,2.23-8.67,1.06-3.59,2.25-7.14,3.43-10.69.25-.74.62-1.48,1.1-2.1.92-1.17,2.18-1.64,3.64-1.19,1.56.48,2.07,1.77,2.01,3.21-.1,2.21-.33,4.42-.62,6.61-1.17,8.78-2.39,17.55-3.54,26.32-.1.77-.03,1.82.41,2.37,4.22,5.27,8.53,10.47,12.83,15.69.1.12.28.19.62.41,1.23-2.11,2.45-4.2,3.67-6.3,1.06-1.82,2.06-3.66,3.18-5.44.76-1.21,1.89-2.04,3.41-1.81,1.64.24,2.62,1.34,2.98,2.9.24,1.04.43,2.14.38,3.2-.25,5.33-.66,10.66-.87,15.99-.11,2.87.81,5.4,3.33,7.25Zm.52,8.26c-.49.55-.88.96-1.24,1.39-6.99,8.31-13.5,16.98-19.38,26.11-8.56,13.28-15.76,27.2-20.06,42.48-3.27,11.61-4.83,23.36-2.19,35.32,2.49,11.25,8.61,19.51,19.94,23.22,4.96,1.62,10.08,2.41,15.26,2.36,16.06-.16,31.41-3.75,46.15-9.98,9.29-3.92,17.85-9.03,24.57-16.74,5.12-5.87,8.05-12.6,7.55-20.54-.3-4.89-1.89-9.44-4.01-13.81-5.58-11.49-13.51-21.31-22.6-30.09-10.21-9.85-20.88-19.22-31.4-28.75-4.08-3.69-8.29-7.24-12.59-10.97Zm-105.55-46.39c-.63-1.04-1.09-1.96-1.68-2.77-2.14-2.92-3.53-3-5.2.18-1.89,3.59-3.65,7.34-4.81,11.22-4.46,14.99-5.7,30.42-5.51,45.97.04,3.71.81,7.43,1.45,11.11.24,1.38,1.07,2.66,1.65,4.04,2.84-1.62,4.5-3.67,5.42-6.55,3.11-9.74,3.69-19.82,4.39-29.9.69-9.8,1.35-19.59,1.98-29.39.11-1.65.54-3.01,2.32-3.9Zm148.87,1.49c-.24.14-.42.2-.53.31-5.26,5.26-10.52,10.52-15.76,15.8-1.28,1.28-3.02,2.42-3.63,3.99-1.46,3.74-2.35,7.71-1.93,11.81.15,1.47.34,3.11,1.97,3.69,1.66.6,2.96-.6,3.8-1.71,2.32-3.06,4.91-6.07,6.46-9.52,3.48-7.75,6.4-15.76,9.54-23.66.07-.19.05-.42.08-.71Zm-75.32,12.1c-.13.52-.23.95-.33,1.37-1.12,4.97-2.11,9.97-3.4,14.89-.52,1.99-.28,3.65.7,5.34,1.51,2.63,2.81,3.03,5.39,1.45,3.88-2.38,6.78-5.78,9.53-9.29-3.98-4.61-7.88-9.13-11.88-13.77Zm130.64-6.77c.41-.81.75-1.39,1.01-1.99,2.57-5.95,3.22-12.26,3.31-18.65.02-1.27-.36-2.58-.72-3.83-.36-1.26-1.17-1.64-2.49-1.03-4.55,2.11-8.72,9.62-7.97,14.63.67,4.48,3.59,7.6,6.86,10.87Zm-248.48-23.49c5.71-13.96,8.9-28.34,7.36-43.52-3.92,14.26-5.62,28.89-7.36,43.52Zm197.86,4.33c-.19-.18-.38-.35-.57-.53-7.43,4.93-12.93,11.64-17.52,19.18.13.12.26.24.39.36,5.9-6.34,11.8-12.68,17.7-19.01Zm54.56,43.31c.19.12.38.24.57.36,2.16-.69,4.38-1.48,5.06-3.94.64-2.33-1.04-4.02-2.02-5.86-.17.01-.34.02-.51.03-1.03,3.14-2.07,6.27-3.1,9.41Zm-115.23-4.28c1.02.97,1.97,1.87,3.16,3.01.23-3.13.44-5.84.64-8.55-.11-.03-.21-.06-.32-.08-1.12,1.81-2.24,3.62-3.48,5.63Zm107.29-15.57c-1.72-2.03-3.36-3.96-5-5.88-.06-.07-.2-.06-.31-.09.06,5.43,1.99,7.69,5.31,5.97Z"/>
    <path class="cls-3" d="m467,68.85c.86,0,1.42.06,1.96,0,7.61-.95,15.22-1.89,22.82-2.88,1.67-.22,3.86-.09,4.82-1.09.97-1,.78-3.19.99-4.87.7-5.76,1.16-11.53-.16-17.28-1.33-5.76-4.6-8.82-10.43-9.71-3.65-.56-7.1.34-10.55,1.34-1.09.32-1.57.9-1.83,1.94-1.67,6.72-3.46,13.41-5.07,20.14-.97,4.06-1.69,8.18-2.56,12.41Zm28.52,2.5c-.56,0-.95-.04-1.32,0-8.95,1.12-17.9,2.23-26.83,3.42-.44.06-1.1.8-1.13,1.26-.12,2.2-.26,4.44-.03,6.62.59,5.67,3.56,9.24,8.4,10.28,3.78.81,7.39.04,10.22-2.49,2.37-2.12,4.46-4.67,6.21-7.33,2.3-3.51,3.57-7.52,4.49-11.76Zm-27.92-33.21c-7.69,4.22-14.66,9.05-20.74,15.1-.39.39-.59,1.1-.62,1.68-.24,3.91-.37,7.82-.63,11.73-.07,1.09.27,1.6,1.32,1.7,4.06.38,8.12.76,12.18,1.15.92.09,1.31-.33,1.48-1.21.36-1.84.79-3.66,1.22-5.48,1.9-8.11,3.81-16.21,5.79-24.65Zm-22.53,35.95c-1.25,5.27.44,9.83,3.93,13.82,1.43,1.64,2.63,1.5,4.13-.27,3.02-3.55,4.24-7.91,5.54-12.25-4.61-.44-9.04-.87-13.6-1.31Zm-76.95,29.07c-.25,1.54-.49,3.01-.73,4.49,2.63-3.38,2.68-3.65.73-4.49Z"/>
    <path class="cls-3" d="m212.01,75.03c.45,1.4.54,2.64-.75,3.46-1.32.84-2.5.33-3.56-.59-2.36-2.05-4.22-4.44-5.1-7.49-.47-1.65-.58-3.31.85-4.58,1.44-1.28,3.16-1.07,4.61-.19,2.16,1.32,4.19,2.86,6.19,4.42,1.07.83,1.75,1.98,1.17,3.44-.45,1.13-1.25,1.5-3.4,1.53Z"/>
    <path class="cls-1" d="m212.21,137.3c4.3,3.74,8.51,7.28,12.59,10.97,10.52,9.53,21.2,18.89,31.4,28.75,9.1,8.78,17.02,18.6,22.6,30.09,2.12,4.37,3.71,8.92,4.01,13.81.5,7.94-2.44,14.66-7.55,20.54-6.72,7.71-15.28,12.82-24.57,16.74-14.74,6.23-30.1,9.82-46.15,9.98-5.19.05-10.31-.73-15.26-2.36-11.34-3.72-17.45-11.97-19.94-23.22-2.65-11.96-1.08-23.71,2.19-35.32,4.3-15.28,11.5-29.2,20.06-42.48,5.88-9.13,12.39-17.8,19.38-26.11.36-.43.75-.84,1.24-1.39Z"/>
    <path class="cls-1" d="m106.65,90.91c-1.78.89-2.21,2.25-2.32,3.9-.63,9.8-1.29,19.6-1.98,29.39-.71,10.07-1.28,20.16-4.39,29.9-.92,2.88-2.58,4.93-5.42,6.55-.58-1.37-1.41-2.66-1.65-4.04-.64-3.68-1.4-7.4-1.45-11.11-.18-15.55,1.05-30.98,5.51-45.97,1.16-3.88,2.92-7.63,4.81-11.22,1.67-3.18,3.06-3.1,5.2-.18.6.81,1.06,1.73,1.68,2.77Z"/>
    <path class="cls-1" d="m255.52,92.4c-.03.3,0,.53-.08.71-3.14,7.91-6.06,15.91-9.54,23.66-1.55,3.45-4.14,6.46-6.46,9.52-.84,1.11-2.14,2.31-3.8,1.71-1.62-.58-1.82-2.22-1.97-3.69-.42-4.1.47-8.07,1.93-11.81.61-1.56,2.35-2.7,3.63-3.99,5.24-5.28,10.5-10.54,15.76-15.8.11-.11.28-.17.53-.31Z"/>
    <path class="cls-1" d="m180.2,104.51c4,4.63,7.9,9.16,11.88,13.77-2.75,3.51-5.65,6.91-9.53,9.29-2.58,1.58-3.88,1.18-5.39-1.45-.97-1.69-1.22-3.35-.7-5.34,1.29-4.92,2.28-9.92,3.4-14.89.1-.43.21-.85.33-1.37Z"/>
    <path class="cls-1" d="m310.84,97.73c-3.27-3.27-6.19-6.39-6.86-10.87-.75-5.01,3.42-12.52,7.97-14.63,1.32-.61,2.12-.23,2.49,1.03.36,1.25.74,2.55.72,3.83-.09,6.39-.73,12.69-3.31,18.65-.26.61-.6,1.19-1.01,1.99Z"/>
    <path class="cls-3" d="m62.36,74.24c1.74-14.63,3.44-29.26,7.36-43.52,1.54,15.18-1.65,29.56-7.36,43.52Z"/>
    <path class="cls-4" d="m260.22,78.58c-5.9,6.34-11.8,12.68-17.7,19.01-.13-.12-.26-.24-.39-.36,4.59-7.54,10.09-14.25,17.52-19.18.19.18.38.35.57.53Z"/>
    <path class="cls-1" d="m314.78,121.89c1.03-3.14,2.07-6.27,3.1-9.41.17-.01.34-.02.51-.03.98,1.84,2.66,3.53,2.02,5.86-.68,2.46-2.9,3.25-5.06,3.94-.19-.12-.38-.24-.57-.36Z"/>
    <path class="cls-3" d="m199.55,117.61c1.25-2.01,2.36-3.82,3.48-5.63.11.03.21.06.32.08-.2,2.71-.4,5.42-.64,8.55-1.2-1.14-2.14-2.03-3.16-3.01Z"/>
    <path class="cls-3" d="m306.84,102.04c-3.32,1.72-5.25-.55-5.31-5.97.11.03.25.02.31.09,1.64,1.92,3.28,3.85,5,5.88Z"/>
    <path class="cls-1" d="m467,68.85c.86-4.23,1.59-8.35,2.56-12.41,1.61-6.73,3.39-13.42,5.07-20.14.26-1.04.74-1.63,1.83-1.94,3.46-1.01,6.91-1.9,10.55-1.34,5.83.89,9.1,3.95,10.43,9.71,1.32,5.75.86,11.52.16,17.28-.2,1.68-.02,3.86-.99,4.87-.96.99-3.15.87-4.82,1.09-7.6.99-15.21,1.94-22.82,2.88-.54.07-1.1,0-1.96,0Z"/>
    <path class="cls-1" d="m495.52,71.35c-.92,4.24-2.2,8.26-4.49,11.76-1.75,2.67-3.84,5.22-6.21,7.33-2.83,2.53-6.44,3.3-10.22,2.49-4.83-1.04-7.8-4.61-8.4-10.28-.23-2.19-.09-4.42.03-6.62.03-.45.69-1.2,1.13-1.26,8.94-1.19,17.89-2.3,26.83-3.42.38-.05.77,0,1.32,0Z"/>
    <path class="cls-1" d="m467.6,38.14c-1.98,8.44-3.89,16.54-5.79,24.65-.43,1.82-.86,3.64-1.22,5.48-.17.88-.56,1.3-1.48,1.21-4.06-.39-8.12-.77-12.18-1.15-1.05-.1-1.4-.6-1.32-1.7.26-3.91.39-7.82.63-11.73.04-.58.24-1.29.62-1.68,6.08-6.05,13.05-10.88,20.74-15.1Z"/>
    <path class="cls-3" d="m445.07,74.09c4.56.44,8.99.86,13.6,1.31-1.3,4.34-2.52,8.7-5.54,12.25-1.5,1.77-2.7,1.9-4.13.27-3.49-3.99-5.18-8.55-3.93-13.82Z"/>
    <path class="cls-3" d="m368.12,103.16c1.95.83,1.9,1.11-.73,4.49.24-1.48.48-2.95.73-4.49Z"/>
  </g>
</svg>