<svg xmlns="http://www.w3.org/2000/svg" viewBox="0 0 32 32"><g data-name="27-Email-Message"><path d="M31.59 11.19 27 7.83V5a1 1 0 0 0-1-1h-4.22L16.59.19a1 1 0 0 0-1.18 0L10.22 4H6a1 1 0 0 0-1 1v2.83L.41 11.19A1 1 0 0 0 0 12v17a3 3 0 0 0 3 3h26a3 3 0 0 0 3-3V12a1 1 0 0 0-.41-.81zM27 10.31l2.2 1.61-2.2 1.31zM16 2.24 18.4 4h-4.8zM7 6h18v8.43l-9 5.4-9-5.4zm-2 4.31v2.93l-2.2-1.32zM2 28.59V13.77l9.26 5.56zM3.41 30 13 20.38l2.46 1.47a1 1 0 0 0 1 0L19 20.38 28.59 30zM30 28.59l-9.26-9.26L30 13.77z"/><path d="M10 9h12v2H10zM12 13h8v2h-8z"/></g></svg>