<?xml version="1.0" encoding="UTF-8"?>
<svg id="Layer_2" data-name="Layer 2" xmlns="http://www.w3.org/2000/svg" viewBox="0 0 756.88 107.25">
  <defs>
    <style>
      .cls-1 {
        fill: #000;
        stroke-width: 0px;
      }
    </style>
  </defs>
  <g id="Layer_1-2" data-name="Layer 1">
    <g>
      <path class="cls-1" d="M6.45,20.25c0-6.45-2.25-11.7-6.45-13.5l2.1-1.95c4.35,1.5,7.5,3.75,10.35,7.95C14.55,7.2,20.25,1.35,26.4,0l1.05,1.5c-5.25,4.35-6.6,9.6-6.6,18.75v25.8l18.45-16.05c6.15,5.1,10.5,11.25,13.8,18l-16.35,11.85c13.35,6.9,10.35,27.9,15.75,36.15l5.4-3.15.9,2.25-14.55,9.9c-12.75-5.55-6-34.2-18.15-36.75l-5.25,4.65v18.6c1.35.6,2.4,1.05,4.95,3l3.45-2.4,1.2,2.25-13.65,10.65c-7.8-4.65-10.65-7.2-15.3-8.25v-2.55c3.45-1.05,4.95-5.7,4.95-8.85V20.25ZM20.85,48.75v21.15l18.75-15.15c-1.65-5.1-4.65-9.6-9.9-13.05l-8.85,7.05Z"/>
      <path class="cls-1" d="M81.15,30c5.25,3.9,11.25,6,20.4,7.65,4.8-2.25,7.05-4.5,9.3-6.75l1.8,1.2c-3.6,4.5-7.95,10.2-7.95,18.75v31.8c0,7.5,1.8,10.5,4.65,11.85l5.1-3.45,1.2,2.25-15.15,11.7c-4.5-1.8-10.2-8.55-10.2-13.8l-14.7,13.8c-6.9-2.7-14.4-7.8-14.4-19.8s7.95-18.15,15.45-23.1c-6.15-6.6-9.75-14.4-11.7-23.55,9-1.95,13.2-5.1,16.2-8.55ZM90.3,66.3v-17.4c-7.95-2.25-16.05-4.65-22.2-8.1,2.85,12.75,10.65,22.95,22.2,25.5ZM90.3,69.15c-5.55-.9-7.95-2.55-12-5.55-1.95,4.2-2.7,8.7-2.7,13.05,0,10.5,2.7,15.6,7.2,18.3l7.5-7.05v-18.75Z"/>
      <path class="cls-1" d="M140.4,91.5c1.35.6,2.4,1.05,4.95,3l3.45-2.4,1.2,2.25-13.65,10.65c-7.8-4.65-10.65-7.2-15.3-8.25v-2.55c3.45-1.05,4.95-5.7,4.95-8.85v-35.4c0-4.65-2.7-9.15-7.5-6.9l-.9-1.95,11.4-11.25c8.1,2.1,10.35,7.65,11.1,13.2l12.3-13.05c4.65,5.7,6.45,9.15,11.1,8.1l.75,1.95-7.5,10.05c-4.8-.15-9.6-2.55-12.45-7.65l-3.9,4.2v44.85Z"/>
      <path class="cls-1" d="M172.2,20.25c0-6.45-2.25-11.7-6.45-13.5l2.1-1.95c4.35,1.5,7.5,3.75,10.35,7.95,2.1-5.55,7.8-11.4,13.95-12.75l1.05,1.5c-5.25,4.35-6.6,9.6-6.6,18.75v69.75c3.3,1.65,5.4,2.55,7.95,4.5l3.45-2.4,1.2,2.25-13.65,10.65c-7.8-4.65-13.65-7.2-18.3-8.25v-2.55c3.45-1.05,4.95-5.7,4.95-8.85V20.25Z"/>
      <path class="cls-1" d="M206.84,41.25l11.7-11.25,13.05,11.1-5.1,6v42.9c1.5,1.05,4.05,2.7,5.7,4.5l3.45-2.4,1.2,2.25-13.65,10.65c-7.8-4.65-11.4-7.2-16.05-8.25v-2.55c3.45-1.05,4.95-5.7,4.95-8.85v-38.85l-5.25-5.25ZM218.69,22.8l-1.8-.9,7.8-18.9h12.75v2.1l-18.75,17.7Z"/>
      <path class="cls-1" d="M279.29,40.95c9.45-2.55,17.85-6.3,24.45-11.25,2.4,2.1,8.25,6.75,13.5,6.75,4.35,0,6.15-4.8,6-8.7l2.1.3c0,5.4-2.4,9-6,13.35l-13.05,16.2c4.95,3.6,11.4,6.3,18,6.3l.3,2.1c-3.15,2.7-3.9,3.75-3.9,5.25v21.45c-7.95,2.25-16.35,6.6-24.3,13.65-2.85-3.75-10.8-9.6-17.1-9.6s-9.45,4.95-7.2,9.45l-2.1,1.05c-3.75-7.5,4.65-12.6,8.85-18.3l9.9-13.2c-4.35-2.1-9-4.8-13.95-6.15v-2.1c1.5-.45,4.5-1.5,4.5-3.75v-22.8ZM306.29,72c-3.3-.75-6.15-2.25-8.7-4.05l-16.2,21.75c8.55-2.55,19.05-1.05,24.9,5.85v-23.55ZM311.69,47.1c-8.25.3-13.65-2.1-18-8.55v25.65l2.7,1.65,15.3-18.75Z"/>
      <path class="cls-1" d="M375.89,52.8l-26.4,22.05v13.8c3.15,1.35,8.1,3.15,12.15,6.45l9.45-6,1.65,1.95-19.35,13.95c-6.9-4.05-15.9-7.5-23.7-10.05v-2.1c3.9-1.5,5.4-6.3,5.4-9.6v-28.5c0-4.05-2.7-6.45-5.85-6.9v-2.7c11.4-4.35,19.95-9.6,28.2-15.15l18.45,22.8ZM349.49,71.85l13.5-11.55-14.85-20.25-2.1,1.05c2.1,3.9,3.45,8.1,3.45,12.9v17.85Z"/>
      <path class="cls-1" d="M429.14,83.4c0,8.1,1.65,11.7,7.2,9.75l.45,2.25-15,9.75c-6.75-5.55-7.05-12.75-7.05-20.85v-37.05l-5.1-3.9-8.85,8.55v38.85l5.25,4.5-11.4,10.5-12.9-9.9,4.65-4.95v-40.95c0-4.65-2.7-9.15-7.5-6.9l-.9-1.95,11.4-11.25c8.1,2.1,11.4,10.5,11.4,18.3l18-18.15c4.65,5.7,9.45,9.15,14.1,8.1l.75,1.95c-2.25.9-4.5,3.75-4.5,6.9v36.45Z"/>
      <path class="cls-1" d="M447.14,40.95c9.45-2.55,17.85-6.3,24.45-11.25,2.4,2.1,8.25,6.75,13.5,6.75,4.35,0,6.15-4.8,6-8.7l2.1.3c0,5.4-2.4,9-6,13.35l-13.05,16.2c4.95,3.6,11.4,6.3,18,6.3l.3,2.1c-3.15,2.7-3.9,3.75-3.9,5.25v21.45c-7.95,2.25-16.35,6.6-24.3,13.65-2.85-3.75-10.8-9.6-17.1-9.6s-9.45,4.95-7.2,9.45l-2.1,1.05c-3.75-7.5,4.65-12.6,8.85-18.3l9.9-13.2c-4.35-2.1-9-4.8-13.95-6.15v-2.1c1.5-.45,4.5-1.5,4.5-3.75v-22.8ZM474.14,72c-3.3-.75-6.15-2.25-8.7-4.05l-16.2,21.75c8.55-2.55,19.05-1.05,24.9,5.85v-23.55ZM479.54,47.1c-8.25.3-13.65-2.1-18-8.55v25.65l2.7,1.65,15.3-18.75Z"/>
      <path class="cls-1" d="M498.74,41.25l11.7-11.25,13.05,11.1-5.1,6v42.9c1.5,1.05,4.05,2.7,5.7,4.5l3.45-2.4,1.2,2.25-13.65,10.65c-7.8-4.65-11.4-7.2-16.05-8.25v-2.55c3.45-1.05,4.95-5.7,4.95-8.85v-38.85l-5.25-5.25ZM510.59,22.8l-1.8-.9,7.8-18.9h12.75v2.1l-18.75,17.7Z"/>
      <path class="cls-1" d="M557.09,1.5c-5.25,4.35-6.6,9.6-6.6,18.75v27.9l18.6-18.15c4.65,5.7,9.45,9.15,14.1,8.1l.75,1.95c-2.25.9-4.5,3.75-4.5,6.9v45.75c-8.1,2.7-17.4,8.25-23.25,12.3-6.75-5.1-14.25-7.5-24.15-8.7v-3c2.4-.6,4.05-3.3,4.05-8.4V20.25c0-6.45-2.25-11.7-6.45-13.5l2.1-1.95c4.35,1.5,7.5,3.75,10.35,7.95,2.1-5.55,7.8-11.4,13.95-12.75l1.05,1.5ZM550.49,88.5c5.55,1.05,11.25,3.9,14.55,7.35v-48.6l-5.1-4.65-9.45,8.7v37.2Z"/>
      <path class="cls-1" d="M635.99,52.8l-26.4,22.05v13.8c3.15,1.35,8.1,3.15,12.15,6.45l9.45-6,1.65,1.95-19.35,13.95c-6.9-4.05-15.9-7.5-23.7-10.05v-2.1c3.9-1.5,5.4-6.3,5.4-9.6v-28.5c0-4.05-2.7-6.45-5.85-6.9v-2.7c11.4-4.35,19.95-9.6,28.2-15.15l18.45,22.8ZM609.59,71.85l13.5-11.55-14.85-20.25-2.1,1.05c2.1,3.9,3.45,8.1,3.45,12.9v17.85Z"/>
      <path class="cls-1" d="M643.94,20.25c0-6.45-2.25-11.7-6.45-13.5l2.1-1.95c4.35,1.5,7.5,3.75,10.35,7.95,2.1-5.55,7.8-11.4,13.95-12.75l1.05,1.5c-5.25,4.35-6.6,9.6-6.6,18.75v69.75c3.3,1.65,5.4,2.55,7.95,4.5l3.45-2.4,1.2,2.25-13.65,10.65c-7.8-4.65-13.65-7.2-18.3-8.25v-2.55c3.45-1.05,4.95-5.7,4.95-8.85V20.25Z"/>
      <path class="cls-1" d="M676.79,20.25c0-6.45-2.25-11.7-6.45-13.5l2.1-1.95c4.35,1.5,7.5,3.75,10.35,7.95,2.1-5.55,7.8-11.4,13.95-12.75l1.05,1.5c-5.25,4.35-6.6,9.6-6.6,18.75v69.75c3.3,1.65,5.4,2.55,7.95,4.5l3.45-2.4,1.2,2.25-13.65,10.65c-7.8-4.65-13.65-7.2-18.3-8.25v-2.55c3.45-1.05,4.95-5.7,4.95-8.85V20.25Z"/>
      <path class="cls-1" d="M729.89,29.25c7.95,4.5,16.65,9.3,27,10.95v2.25c-2.55,1.2-3.75,3.15-3.75,9.45v42.45l-21.9,11.4c-7.05-5.4-17.7-9.45-26.1-10.8v-2.25c2.85-1.2,3.6-3.15,3.6-8.7v-42.15l21.15-12.6ZM723.14,88.35c6.15,1.95,10.95,4.5,15.6,8.4v-50.1c-5.7-1.05-10.8-3.45-15.6-7.65v49.35Z"/>
    </g>
  </g>
</svg>